<svg width="218" height="96" viewBox="0 0 218 96" fill="none" xmlns="http://www.w3.org/2000/svg">
<path d="M86 45.0673C86 43.2059 86.4457 41.7071 87.3372 40.5708C88.2363 39.4346 89.4451 38.8665 90.9636 38.8665C92.3084 38.8665 93.3548 39.3225 94.1027 40.2345L94.2387 39.0907H97.2078V50.8196C97.2078 51.8811 96.9623 52.8043 96.4712 53.5892C95.9877 54.3741 95.304 54.9721 94.42 55.3833C93.5361 55.7944 92.5011 56 91.3149 56C90.4159 56 89.5395 55.8206 88.6858 55.4618C87.8321 55.1104 87.1861 54.6544 86.7479 54.0938L88.1985 52.1203C89.0144 53.0248 90.0041 53.4771 91.1676 53.4771C92.0364 53.4771 92.7126 53.2453 93.1961 52.7819C93.6796 52.3259 93.9214 51.6755 93.9214 50.8308V50.1804C93.1659 51.0251 92.1724 51.4475 90.941 51.4475C89.4677 51.4475 88.2741 50.8794 87.3599 49.7431C86.4533 48.5994 86 47.0856 86 45.2018V45.0673ZM89.2751 45.3028C89.2751 46.4016 89.498 47.265 89.9437 47.893C90.3894 48.5134 91.0014 48.8236 91.7796 48.8236C92.7768 48.8236 93.4908 48.4536 93.9214 47.7136V42.6116C93.4832 41.8716 92.7768 41.5015 91.8022 41.5015C91.0165 41.5015 90.397 41.8192 89.9437 42.4546C89.498 43.09 89.2751 44.0394 89.2751 45.3028Z" fill="white"/>
<path d="M103.191 51.2232H99.905V34H103.191V51.2232Z" fill="white"/>
<path d="M105.39 45.0449C105.39 43.8413 105.624 42.7686 106.092 41.8267C106.561 40.8848 107.233 40.156 108.11 39.6402C108.994 39.1244 110.017 38.8665 111.181 38.8665C112.835 38.8665 114.184 39.3673 115.226 40.369C116.277 41.3707 116.862 42.7312 116.983 44.4506L117.006 45.2803C117.006 47.1417 116.481 48.6368 115.43 49.7655C114.38 50.8869 112.971 51.4475 111.203 51.4475C109.436 51.4475 108.023 50.8869 106.965 49.7655C105.915 48.6442 105.39 47.1193 105.39 45.1906V45.0449ZM108.665 45.2803C108.665 46.4315 108.884 47.3136 109.322 47.9266C109.76 48.5321 110.387 48.8349 111.203 48.8349C111.997 48.8349 112.616 48.5358 113.062 47.9378C113.508 47.3323 113.731 46.368 113.731 45.0449C113.731 43.9161 113.508 43.0415 113.062 42.421C112.616 41.8005 111.989 41.4903 111.181 41.4903C110.38 41.4903 109.76 41.8005 109.322 42.421C108.884 43.034 108.665 43.9871 108.665 45.2803Z" fill="white"/>
<path d="M130.072 45.2691C130.072 47.2127 129.653 48.7302 128.814 49.8216C127.976 50.9055 126.804 51.4475 125.301 51.4475C123.971 51.4475 122.91 50.9429 122.117 49.9337L121.969 51.2232H119.023V34H122.298V40.1784C123.053 39.3038 124.047 38.8665 125.278 38.8665C126.774 38.8665 127.945 39.4122 128.791 40.5036C129.645 41.5875 130.072 43.1162 130.072 45.0897V45.2691ZM126.797 45.0336C126.797 43.8077 126.6 42.9144 126.208 42.3537C125.815 41.7856 125.229 41.5015 124.451 41.5015C123.409 41.5015 122.691 41.9239 122.298 42.7686V47.5566C122.698 48.4088 123.424 48.8349 124.474 48.8349C125.531 48.8349 126.227 48.3191 126.559 47.2875C126.718 46.7941 126.797 46.0428 126.797 45.0336Z" fill="white"/>
<path d="M139.206 51.2232C139.055 50.9317 138.945 50.5691 138.877 50.1356C138.084 51.0102 137.053 51.4475 135.784 51.4475C134.582 51.4475 133.585 51.1036 132.792 50.4159C132.006 49.7282 131.613 48.861 131.613 47.8145C131.613 46.5287 132.093 45.542 133.052 44.8542C134.019 44.1665 135.413 43.8189 137.234 43.8114H138.741V43.1162C138.741 42.5556 138.594 42.107 138.299 41.7706C138.012 41.4343 137.555 41.2661 136.928 41.2661C136.377 41.2661 135.942 41.3969 135.625 41.6585C135.315 41.9201 135.16 42.279 135.16 42.735H131.885C131.885 42.0323 132.104 41.3819 132.542 40.7839C132.981 40.1859 133.6 39.7187 134.401 39.3823C135.202 39.0384 136.101 38.8665 137.098 38.8665C138.609 38.8665 139.807 39.244 140.691 39.999C141.582 40.7465 142.028 41.8005 142.028 43.1611V48.42C142.035 49.5712 142.198 50.4421 142.515 51.0326V51.2232H139.206ZM136.498 48.9694C136.981 48.9694 137.427 48.8648 137.835 48.6555C138.243 48.4387 138.545 48.1509 138.741 47.792V45.7064H137.517C135.878 45.7064 135.005 46.2671 134.9 47.3884L134.888 47.579C134.888 47.9827 135.032 48.3153 135.319 48.577C135.606 48.8386 135.999 48.9694 136.498 48.9694Z" fill="white"/>
<path d="M148 51.2232H144.714V34H148V51.2232Z" fill="white"/>
<path d="M161.083 36.8099V39.7636H163.187V42.1176H161.083V48.1137C161.083 48.5578 161.17 48.8761 161.345 49.0686C161.519 49.261 161.853 49.3573 162.346 49.3573C162.709 49.3573 163.032 49.3314 163.312 49.2796V51.7113C162.668 51.9038 162.004 52 161.322 52C159.017 52 157.842 50.8637 157.797 48.5911V42.1176H156V39.7636H157.797V36.8099H161.083Z" fill="#FFC12C"/>
<path d="M172.148 51.7779C171.997 51.4892 171.887 51.1302 171.818 50.7008C171.022 51.5669 169.988 52 168.714 52C167.508 52 166.508 51.6595 165.712 50.9784C164.923 50.2974 164.529 49.4387 164.529 48.4024C164.529 47.1291 165.01 46.152 165.973 45.4709C166.944 44.7899 168.342 44.4457 170.169 44.4383H171.682V43.7498C171.682 43.1946 171.534 42.7505 171.238 42.4174C170.95 42.0843 170.492 41.9177 169.862 41.9177C169.309 41.9177 168.873 42.0472 168.555 42.3063C168.244 42.5654 168.088 42.9207 168.088 43.3723H164.802C164.802 42.6765 165.022 42.0324 165.461 41.4402C165.901 40.848 166.523 40.3854 167.326 40.0523C168.13 39.7117 169.032 39.5415 170.033 39.5415C171.549 39.5415 172.751 39.9153 173.638 40.663C174.533 41.4032 174.98 42.447 174.98 43.7943V49.002C174.987 50.142 175.15 51.0044 175.469 51.5892V51.7779H172.148ZM169.43 49.546C169.916 49.546 170.363 49.4424 170.772 49.2351C171.182 49.0205 171.485 48.7355 171.682 48.3801V46.3148H170.454C168.809 46.3148 167.933 46.87 167.827 47.9804L167.815 48.1692C167.815 48.5689 167.96 48.8983 168.248 49.1574C168.536 49.4165 168.93 49.546 169.43 49.546Z" fill="#FFC12C"/>
<path d="M182.19 43.3501L184.259 39.7636H187.773L184.271 45.6486L187.921 51.7779H184.396L182.201 48.0026L180.018 51.7779H176.481L180.131 45.6486L176.64 39.7636H180.165L182.19 43.3501Z" fill="#FFC12C"/>
<path d="M192.822 51.7779H189.525V39.7636H192.822V51.7779ZM189.331 36.6545C189.331 36.1733 189.494 35.7773 189.82 35.4664C190.154 35.1555 190.605 35 191.174 35C191.735 35 192.182 35.1555 192.515 35.4664C192.849 35.7773 193.016 36.1733 193.016 36.6545C193.016 37.143 192.845 37.5428 192.504 37.8537C192.17 38.1646 191.727 38.3201 191.174 38.3201C190.62 38.3201 190.173 38.1646 189.832 37.8537C189.498 37.5428 189.331 37.143 189.331 36.6545Z" fill="#FFC12C"/>
<path d="M201.204 52C199.399 52 197.928 51.4596 196.791 50.3788C195.662 49.2981 195.097 47.8583 195.097 46.0594V45.7485C195.097 44.5419 195.336 43.4648 195.813 42.5173C196.291 41.5624 196.966 40.8295 197.837 40.3187C198.717 39.8006 199.718 39.5415 200.84 39.5415C202.523 39.5415 203.846 40.0597 204.809 41.096C205.779 42.1324 206.264 43.6018 206.264 45.5042V46.8145H198.429C198.535 47.5992 198.853 48.2284 199.384 48.7022C199.922 49.1759 200.601 49.4128 201.42 49.4128C202.686 49.4128 203.675 48.9649 204.388 48.0692L206.003 49.8347C205.51 50.5158 204.843 51.0488 204.001 51.4337C203.16 51.8112 202.227 52 201.204 52ZM200.828 42.1398C200.176 42.1398 199.646 42.3545 199.236 42.7838C198.834 43.2132 198.577 43.8276 198.463 44.627H203.034V44.3717C203.019 43.661 202.822 43.1132 202.443 42.7283C202.064 42.3359 201.526 42.1398 200.828 42.1398Z" fill="#FFC12C"/>
<path d="M214.804 48.4579C214.804 48.0655 214.604 47.7583 214.202 47.5363C213.808 47.3068 213.171 47.1032 212.291 46.9255C209.365 46.3259 207.902 45.1119 207.902 43.2835C207.902 42.2175 208.353 41.3292 209.255 40.6186C210.165 39.9005 211.351 39.5415 212.814 39.5415C214.376 39.5415 215.623 39.9005 216.556 40.6186C217.496 41.3366 217.966 42.2693 217.966 43.4167H214.679C214.679 42.9578 214.528 42.5802 214.225 42.2841C213.921 41.9806 213.447 41.8289 212.803 41.8289C212.25 41.8289 211.821 41.951 211.518 42.1953C211.215 42.4396 211.063 42.7505 211.063 43.128C211.063 43.4833 211.234 43.772 211.575 43.9941C211.924 44.2088 212.507 44.3976 213.326 44.5604C214.145 44.7159 214.835 44.8935 215.396 45.0934C217.132 45.7152 218 46.7923 218 48.3246C218 49.4202 217.519 50.3085 216.556 50.9895C215.593 51.6632 214.35 52 212.826 52C211.795 52 210.877 51.8223 210.074 51.467C209.278 51.1043 208.652 50.612 208.197 49.9902C207.742 49.361 207.515 48.6836 207.515 47.9582H210.631C210.661 48.5282 210.877 48.9649 211.279 49.2685C211.681 49.572 212.219 49.7237 212.894 49.7237C213.523 49.7237 213.997 49.609 214.315 49.3795C214.641 49.1426 214.804 48.8354 214.804 48.4579Z" fill="#FFC12C"/>
<g clip-path="url(#clip0)">
<g filter="url(#filter0_d)">
<path d="M63.324 36.847C63.324 51.2406 43.7293 76.177 37.1977 84.0682C36.163 85.3308 34.0935 85.3308 33.0588 84.0682C26.5919 76.2401 6.99713 51.2406 6.99713 36.847C6.99713 19.6126 19.6076 5.59772 35.1929 5.59772C44.1173 5.59772 52.0069 10.2062 57.1805 17.3399C57.6331 17.9712 57.5038 18.7919 56.8571 19.2338L24.9105 44.4857C24.3285 44.9908 24.2638 45.8115 24.7165 46.3796C24.9752 46.6953 25.4279 46.8215 25.8159 46.8215C26.1392 46.8215 26.4626 46.6953 26.7212 46.5059L57.7625 22.0115C58.5385 21.3802 59.8319 21.6327 60.2199 22.5165C60.4786 23.0847 60.3493 23.7791 59.7672 24.221L28.7907 48.7786C28.2086 49.2836 28.144 50.1043 28.5967 50.6725C28.8553 50.9881 29.308 51.1144 29.696 51.1144C30.0194 51.1144 30.3427 50.9881 30.6014 50.7987L59.7026 27.7563C60.6079 27.0619 61.966 27.5038 62.2247 28.577C63.0007 31.2285 63.324 34.0062 63.324 36.847Z" fill="url(#paint0_linear)"/>
<path d="M58.3995 16.4658L58.3947 16.4592C52.9784 8.99083 44.6613 4.09772 35.1929 4.09772C18.6367 4.09772 5.49713 18.9342 5.49713 36.847C5.49713 40.7464 6.81349 45.229 8.78267 49.7912C10.7626 54.3784 13.4576 59.1696 16.335 63.7212C22.0895 72.8239 28.6486 81.0847 31.9009 85.0217C33.5357 87.013 36.721 87.013 38.3557 85.0216C41.6403 81.0531 48.215 72.7929 53.9773 63.6988C56.8588 59.1511 59.556 54.3657 61.5371 49.7832C63.5075 45.2255 64.824 40.7467 64.824 36.847C64.824 33.9043 64.4904 30.9909 63.673 28.1854C63.229 26.4421 61.4582 25.6295 59.9062 26.025L60.6888 25.4046C61.8325 24.526 62.1209 23.0825 61.5892 21.9041C61.1588 20.9332 60.2759 20.3956 59.4337 20.2255C58.9711 20.1321 58.4654 20.1366 57.974 20.2641C59.0977 19.2929 59.2619 17.6685 58.3995 16.4658Z" stroke="black" stroke-width="3"/>
</g>
<g filter="url(#filter1_d)">
<path d="M63.324 36.847C63.324 51.2406 43.7293 76.177 37.1977 84.0682C36.163 85.3308 34.0935 85.3308 33.0588 84.0682C26.5919 76.2401 6.99713 51.2406 6.99713 36.847C6.99713 19.6126 19.6076 5.59772 35.1929 5.59772C44.1173 5.59772 52.0069 10.2062 57.1805 17.3399C57.6331 17.9712 57.5038 18.7919 56.8571 19.2338L24.9105 44.4857C24.3285 44.9908 24.2638 45.8115 24.7165 46.3796C24.9752 46.6953 25.4279 46.8215 25.8159 46.8215C26.1392 46.8215 26.4626 46.6953 26.7212 46.5059L57.7625 22.0115C58.5385 21.3802 59.8319 21.6327 60.2199 22.5165C60.4786 23.0847 60.3493 23.7791 59.7672 24.221L28.7907 48.7786C28.2086 49.2836 28.144 50.1043 28.5967 50.6725C28.8553 50.9881 29.308 51.1144 29.696 51.1144C30.0194 51.1144 30.3427 50.9881 30.6014 50.7987L59.7026 27.7563C60.6079 27.0619 61.966 27.5038 62.2247 28.577C63.0007 31.2285 63.324 34.0062 63.324 36.847Z" fill="url(#paint1_linear)"/>
</g>
<path d="M31.5717 50.6616L35.5165 52.7335C35.8399 52.9278 36.2926 52.863 36.5513 52.604L37.5213 51.7623L32.9944 49.3667L31.5717 50.6616Z" fill="#E38100"/>
<path d="M26.6568 44.8991L28.0795 43.669L26.4628 38.8129L25.4928 39.6546C25.1694 39.9136 25.1047 40.3021 25.2341 40.6906L26.6568 44.8991Z" fill="#E38100"/>
<path d="M21.9361 49.302L22.4534 50.9854C22.8414 52.2156 23.6821 53.2515 24.8462 53.8342L26.3982 54.6112C28.209 55.5177 30.4077 55.1292 31.8305 53.7048L37.4567 48.0718L44.1176 43.2805C45.6697 42.1798 46.381 40.1726 45.9284 38.295L45.8637 37.9712C45.2817 35.6403 43.6649 33.7627 41.4662 32.7915L41.0782 32.5972C39.3321 31.8202 37.2627 32.2087 35.9046 33.6332L30.1491 39.4604L23.6821 44.1222C22.0007 45.2876 21.2894 47.3595 21.9361 49.302Z" fill="#FFBC05"/>
<path d="M24.0054 43.8632C23.0354 48.2013 24.7814 52.6041 28.4029 55.1292C27.6915 55.1292 27.0449 54.9349 26.4628 54.6112L24.9108 53.8343C23.7467 53.2515 22.906 52.2156 22.518 50.9854L22.0007 49.302C21.4186 47.3596 22.13 45.2229 23.7467 44.0575L24.0054 43.8632Z" fill="#E38100"/>
<path d="M31.5717 50.4675L31.701 50.5322C32.0244 50.5969 32.4124 50.5322 32.6711 50.2732L35.5812 47.2948L30.6663 41.5323L27.2389 43.928C26.9802 44.1222 26.7862 44.446 26.8509 44.8344V44.9639C27.1095 47.5538 28.9849 49.7552 31.5717 50.4675Z" fill="#F2F2F2"/>
<path d="M31.507 50.4674C28.9849 49.6904 27.1742 47.5538 26.8509 44.8992V44.7697C26.7862 44.4459 26.9802 44.0575 27.2389 43.8632L29.8903 42.0503C29.1789 44.9639 29.8256 48.007 31.507 50.4674Z" fill="#BDBDBD"/>
<path d="M40.5607 42.9568L35.6459 37.1943L37.0686 35.5108C37.3273 35.1871 37.78 35.1224 38.1033 35.2519L39.0733 35.6403C40.8841 36.3526 42.2421 37.9065 42.6301 39.8489L42.8242 40.8849C42.8888 41.2733 42.6948 41.6618 42.3715 41.8561L40.5607 42.9568Z" fill="#F2F2F2"/>
<path d="M38.168 35.2519L38.6854 35.4461C38.6207 37.9065 39.2027 40.3669 40.3021 42.6331L35.7106 37.2591L37.1333 35.5756C37.3273 35.1872 37.78 35.0577 38.168 35.2519Z" fill="#BDBDBD"/>
<path d="M30.4019 51.758L26.998 52.1602L27.1117 53.1247L30.5156 52.7225L30.4019 51.758Z" fill="#555160"/>
<path d="M25.4225 45.8857L24.4893 45.6205L23.548 48.9203L24.4812 49.1854L25.4225 45.8857Z" fill="#555160"/>
<path d="M36.1633 47.2948L30.7311 40.8849L26.9803 43.4748C26.5276 43.7985 26.3336 44.3165 26.3982 44.8345V44.964C26.7216 47.8128 28.7263 50.1437 31.5071 50.9207L31.6364 50.9854C32.1538 51.1149 32.6711 50.9854 33.0592 50.5969L36.1633 47.2948ZM31.8304 50.079L31.7011 50.0142C29.3083 49.3667 27.5623 47.2948 27.3036 44.8345V44.705C27.3036 44.5107 27.3683 44.3812 27.4976 44.2517L30.6017 42.1151L34.9346 47.2301L32.3478 49.9495C32.2185 50.079 32.0245 50.1437 31.8304 50.079Z" fill="#333333"/>
<path d="M35.0636 37.1942L40.4958 43.6042L42.7592 42.2445C43.2766 41.9208 43.5353 41.338 43.4059 40.7553L43.2119 39.7194C42.8239 37.6475 41.3365 35.8993 39.3318 35.1871L38.3617 34.7986C37.7797 34.6043 37.1977 34.7338 36.8097 35.1871L35.0636 37.1942ZM37.9737 35.7051L38.9438 36.0935C40.6252 36.741 41.8539 38.1654 42.2419 39.9784L42.4359 41.0143C42.5006 41.2086 42.3712 41.4028 42.2419 41.5323L40.6898 42.4387L36.2923 37.259L37.4564 35.8993C37.5857 35.6403 37.7797 35.5756 37.9737 35.7051Z" fill="#333333"/>
<path d="M25.4225 45.8865L24.4896 45.6205L23.5511 48.921L24.4841 49.187L25.4225 45.8865Z" fill="#333333"/>
<path d="M30.4037 51.7549L26.9999 52.1564L27.1134 53.1209L30.5172 52.7194L30.4037 51.7549Z" fill="#333333"/>
<path d="M37.9739 51.7624C37.9739 51.6329 37.8445 51.4386 37.7152 51.3739L35.8398 50.4027L37.7799 48.4603L44.3761 43.7337C46.1222 42.5035 46.8982 40.3021 46.3809 38.295L46.2515 37.9065C45.6048 35.4461 43.9234 33.4389 41.5953 32.403L41.272 32.2088C39.3319 31.367 37.0685 31.8203 35.5811 33.3095L29.8902 39.0719L27.6915 40.6906L27.0448 38.6835C26.9801 38.4245 26.7214 38.295 26.4627 38.3597C26.3981 38.3597 26.3334 38.4245 26.3334 38.4245L25.234 39.2662C24.7813 39.6547 24.652 40.2374 24.7813 40.8201L25.2987 42.3093L23.3586 43.669C21.5479 44.9639 20.7719 47.2948 21.4185 49.4315L21.9359 51.1149C22.3886 52.4746 23.294 53.5753 24.5873 54.2228L26.1394 54.9997C28.1441 55.9709 30.5369 55.5825 32.1536 54.0285L33.835 52.3451L35.2578 53.1221C35.7751 53.3811 36.4218 53.3163 36.8098 52.9278L37.7799 52.0861C37.9739 52.0861 38.0385 51.8919 37.9739 51.7624ZM26.0747 41.6618L25.6867 40.4964C25.622 40.3021 25.6867 40.1079 25.8161 39.9784L26.2687 39.5899L26.7861 41.0144L26.0747 41.6618ZM26.6567 54.2228L25.1047 53.4458C24.07 52.9278 23.294 52.0214 22.9059 50.9207L22.3886 49.2372C21.8712 47.4891 22.4533 45.6114 23.9406 44.5107L30.4076 39.8489L36.1631 34.0217C37.3918 32.7915 39.2672 32.403 40.8193 33.1152L41.2073 33.3095C43.2767 34.2159 44.7641 35.9641 45.3462 38.1655L45.4755 38.554C45.9282 40.2374 45.2815 41.9856 43.8588 43.0215L37.1978 47.8128L31.5716 53.4458C30.2782 54.7407 28.2735 55.0645 26.6567 54.2228ZM36.2925 52.2156C36.1631 52.3451 35.9044 52.3451 35.7751 52.2803L34.6757 51.6976L35.3224 51.1149L36.6805 51.8271L36.2925 52.2156Z" fill="#333333"/>
<path d="M10.6707 21.5162C13.4695 14.9827 19.2421 10.3023 24.49 7.87177C24.49 7.87177 23.8979 9.68575 27.3077 10.3023C30.7176 10.9189 29.6275 12.096 29.1804 12.7686C28.7332 13.4412 27.1959 12.3482 26.2177 11.5915C25.2115 10.8628 21.7738 10.3303 19.7894 11.8718C17.8329 13.4412 16.1001 14.6744 16.659 15.319C17.218 15.9636 20.6279 13.217 22.0812 12.8247C23.5625 12.4323 23.3669 13.4693 22.3328 14.9827C21.2986 16.4961 21.5781 17.8413 23.283 18.1496C24.988 18.4859 26.8047 17.9815 27.0283 17.3649C27.2798 16.7483 25.0997 13.9737 28.286 14.4502C31.4722 14.9266 33.9876 14.9827 32.3945 17.7292C30.8014 20.5038 28.9847 23.6147 29.3201 24.9319C29.6555 26.2491 30.8853 27.0058 30.4381 27.2581C29.9909 27.5103 29.348 27.0339 28.8729 26.6976C28.3978 26.3612 26.8606 26.6976 26.2177 27.202C25.5749 27.7345 24.5687 29.276 25.6867 30.0607C26.8047 30.8454 27.6711 30.0327 28.9009 30.1728C30.1027 30.3129 31.6958 31.8263 31.6399 32.3028C31.584 32.7792 30.5219 32.555 29.3201 31.3779C28.1183 30.2008 27.0562 31.6021 26.0221 31.6582C24.988 31.7422 24.2054 31.8263 22.6682 30.453C21.1309 29.0798 18.9788 29.276 17.8329 28.5473C14.5628 26.5294 14.0318 24.3434 13.2213 23.5306C12.4946 22.7459 10.6707 21.5162 10.6707 21.5162Z" fill="white"/>
<path d="M34.6505 57.4387C34.6505 57.4387 37.3894 57.7099 38.7833 58.918C40.1527 60.1261 40.3484 60.5699 42.4514 61.0384C44.5545 61.5068 45.4837 62.6903 44.0899 65.0079C42.7204 67.3256 40.2505 71.0239 39.0523 72.1334C37.854 73.2429 36.3868 74.1552 35.8488 76.0043C35.3108 77.8535 35.1151 78.963 36.3134 79.7027C36.3134 79.7027 35.6776 81.2806 34.2103 79.2342C32.7431 77.2124 33.9413 74.7962 34.2103 73.4155C34.4793 72.0348 35.2129 67.868 34.7483 66.8571C34.2837 65.8462 32.1806 65.2052 31.6426 63.0601C31.0802 60.9398 32.0339 56.8223 34.6505 57.4387Z" fill="white"/>
<path d="M41.283 6.29742C45.1315 7.17207 48.5953 9.18151 51.6038 11.3703C51.6038 11.3703 47.7518 10.9117 46.3775 12.1571C45.0032 13.4025 42.9604 16.3838 41.3262 12.1571C39.6548 7.93039 41.283 6.29742 41.283 6.29742Z" fill="white"/>
<path d="M61.1669 46.4809C62.9449 42.6853 63.7719 38.4986 63.2363 34.6266C63.2363 34.6266 61.4307 35.7139 61.1594 36.812C60.8776 37.9324 62.042 38.5595 61.564 39.2341C61.1082 39.919 60.6721 38.544 58.6888 40.0109C56.6833 41.4674 55.9714 44.4284 57.4274 45.3555C58.8404 46.3168 61.1669 46.4809 61.1669 46.4809Z" fill="white"/>
</g>
<defs>
<filter id="filter0_d" x="-0.00286865" y="2.59772" width="70.3269" height="93.4174" filterUnits="userSpaceOnUse" color-interpolation-filters="sRGB">
<feFlood flood-opacity="0" result="BackgroundImageFix"/>
<feColorMatrix in="SourceAlpha" type="matrix" values="0 0 0 0 0 0 0 0 0 0 0 0 0 0 0 0 0 0 127 0"/>
<feOffset dy="4"/>
<feGaussianBlur stdDeviation="2"/>
<feColorMatrix type="matrix" values="0 0 0 0 0 0 0 0 0 0 0 0 0 0 0 0 0 0 0.25 0"/>
<feBlend mode="normal" in2="BackgroundImageFix" result="effect1_dropShadow"/>
<feBlend mode="normal" in="SourceGraphic" in2="effect1_dropShadow" result="shape"/>
</filter>
<filter id="filter1_d" x="2.99713" y="5.59772" width="64.3269" height="87.4174" filterUnits="userSpaceOnUse" color-interpolation-filters="sRGB">
<feFlood flood-opacity="0" result="BackgroundImageFix"/>
<feColorMatrix in="SourceAlpha" type="matrix" values="0 0 0 0 0 0 0 0 0 0 0 0 0 0 0 0 0 0 127 0"/>
<feOffset dy="4"/>
<feGaussianBlur stdDeviation="2"/>
<feColorMatrix type="matrix" values="0 0 0 0 0 0 0 0 0 0 0 0 0 0 0 0 0 0 0.25 0"/>
<feBlend mode="normal" in2="BackgroundImageFix" result="effect1_dropShadow"/>
<feBlend mode="normal" in="SourceGraphic" in2="effect1_dropShadow" result="shape"/>
</filter>
<linearGradient id="paint0_linear" x1="6.99713" y1="45.3285" x2="63.3545" y2="45.3285" gradientUnits="userSpaceOnUse">
<stop stop-color="#FFC326"/>
<stop offset="1" stop-color="#FFB446"/>
</linearGradient>
<linearGradient id="paint1_linear" x1="6.99713" y1="45.3285" x2="63.3545" y2="45.3285" gradientUnits="userSpaceOnUse">
<stop stop-color="#FFC326"/>
<stop offset="1" stop-color="#FFB446"/>
</linearGradient>
<clipPath id="clip0">
<rect width="68.5719" height="95.6304" fill="white"/>
</clipPath>
</defs>
</svg>
