<svg width="110" height="160" viewBox="0 0 110 160" fill="none" xmlns="http://www.w3.org/2000/svg">
<path d="M0 150.267C0 148.708 0.369301 147.453 1.1079 146.502C1.85276 145.551 2.85426 145.075 4.11238 145.075C5.22654 145.075 6.09346 145.457 6.71314 146.22L6.8258 145.263H9.28572V155.084C9.28572 155.972 9.08229 156.745 8.67544 157.403C8.27484 158.06 7.70837 158.561 6.97603 158.905C6.24369 159.249 5.38616 159.421 4.40344 159.421C3.65858 159.421 2.9325 159.271 2.22519 158.971C1.51789 158.676 0.982715 158.295 0.619674 157.825L1.82147 156.173C2.49747 156.93 3.31745 157.309 4.28138 157.309C5.00121 157.309 5.56142 157.115 5.96202 156.727C6.36261 156.345 6.56291 155.8 6.56291 155.093V154.548C5.93698 155.256 5.11388 155.609 4.0936 155.609C2.87303 155.609 1.88406 155.134 1.12668 154.182C0.37556 153.224 0 151.957 0 150.38V150.267ZM2.71342 150.464C2.71342 151.384 2.89807 152.107 3.26737 152.633C3.63667 153.152 4.14368 153.412 4.78839 153.412C5.61462 153.412 6.20613 153.102 6.56291 152.483V148.211C6.19987 147.591 5.61462 147.281 4.80717 147.281C4.1562 147.281 3.64293 147.547 3.26737 148.079C2.89807 148.611 2.71342 149.406 2.71342 150.464Z" fill="#333333"/>
<path d="M14.2431 155.422H11.5203V141H14.2431V155.422Z" fill="#333333"/>
<path d="M16.0646 150.248C16.0646 149.24 16.2586 148.342 16.6467 147.554C17.0348 146.765 17.5919 146.155 18.3179 145.723C19.0503 145.291 19.8984 145.075 20.8624 145.075C22.2332 145.075 23.3504 145.494 24.2142 146.333C25.0843 147.172 25.5694 148.311 25.6695 149.751L25.6883 150.445C25.6883 152.004 25.2533 153.256 24.3832 154.201C23.5132 155.14 22.3458 155.609 20.8811 155.609C19.4165 155.609 18.246 155.14 17.3697 154.201C16.4996 153.262 16.0646 151.985 16.0646 150.37V150.248ZM18.778 150.445C18.778 151.409 18.9595 152.148 19.3226 152.661C19.6856 153.168 20.2051 153.422 20.8811 153.422C21.5384 153.422 22.0516 153.171 22.4209 152.671C22.7902 152.164 22.9749 151.356 22.9749 150.248C22.9749 149.303 22.7902 148.571 22.4209 148.051C22.0516 147.532 21.5321 147.272 20.8624 147.272C20.1989 147.272 19.6856 147.532 19.3226 148.051C18.9595 148.564 18.778 149.362 18.778 150.445Z" fill="#333333"/>
<path d="M36.5138 150.436C36.5138 152.063 36.1664 153.334 35.4716 154.248C34.7769 155.155 33.8067 155.609 32.5611 155.609C31.4594 155.609 30.58 155.187 29.9227 154.342L29.8007 155.422H27.3596V141H30.073V146.173C30.6989 145.441 31.522 145.075 32.5423 145.075C33.7816 145.075 34.7518 145.532 35.4529 146.446C36.1602 147.353 36.5138 148.633 36.5138 150.286V150.436ZM33.8004 150.239C33.8004 149.212 33.6377 148.464 33.3122 147.995C32.9867 147.519 32.5016 147.281 31.8569 147.281C30.9931 147.281 30.3985 147.635 30.073 148.342V152.351C30.4047 153.065 31.0056 153.422 31.8757 153.422C32.752 153.422 33.3278 152.99 33.6032 152.126C33.7347 151.713 33.8004 151.084 33.8004 150.239Z" fill="#333333"/>
<path d="M44.0814 155.422C43.9562 155.177 43.8654 154.874 43.8091 154.511C43.1519 155.243 42.2975 155.609 41.2459 155.609C40.2506 155.609 39.4244 155.321 38.7672 154.745C38.1162 154.17 37.7907 153.444 37.7907 152.567C37.7907 151.491 38.1882 150.664 38.9831 150.089C39.7843 149.513 40.9392 149.222 42.4477 149.215H43.6964V148.633C43.6964 148.164 43.5744 147.788 43.3302 147.507C43.0924 147.225 42.7137 147.084 42.1942 147.084C41.7372 147.084 41.3773 147.194 41.1144 147.413C40.8578 147.632 40.7295 147.932 40.7295 148.314H38.0161C38.0161 147.726 38.1976 147.181 38.5606 146.68C38.9237 146.18 39.4369 145.788 40.1004 145.507C40.7639 145.219 41.5088 145.075 42.335 145.075C43.5869 145.075 44.579 145.391 45.3113 146.023C46.0499 146.649 46.4192 147.532 46.4192 148.671V153.074C46.4255 154.038 46.5601 154.767 46.8229 155.262V155.422H44.0814ZM41.8374 153.534C42.238 153.534 42.6073 153.447 42.9453 153.271C43.2833 153.09 43.5337 152.849 43.6964 152.548V150.802H42.6824C41.3241 150.802 40.6012 151.272 40.5135 152.21L40.5042 152.37C40.5042 152.708 40.6231 152.987 40.8609 153.206C41.0988 153.425 41.4243 153.534 41.8374 153.534Z" fill="#333333"/>
<path d="M51.3672 155.422H48.6444V141H51.3672V155.422Z" fill="#333333"/>
<path d="M62.9313 142.765V145.263H64.6682V147.253H62.9313V152.323C62.9313 152.699 63.0032 152.968 63.1472 153.131C63.2912 153.293 63.5666 153.375 63.9734 153.375C64.2739 153.375 64.5399 153.353 64.7715 153.309V155.365C64.2395 155.528 63.6918 155.609 63.1284 155.609C61.2256 155.609 60.2554 154.648 60.2178 152.727V147.253H58.7344V145.263H60.2178V142.765H62.9313Z" fill="#FFC12C"/>
<path d="M72.0668 155.421C71.9416 155.177 71.8508 154.874 71.7945 154.511C71.1372 155.243 70.2828 155.609 69.2313 155.609C68.236 155.609 67.4098 155.321 66.7526 154.745C66.1016 154.17 65.7761 153.444 65.7761 152.567C65.7761 151.491 66.1736 150.664 66.9685 150.089C67.7697 149.513 68.9246 149.222 70.4331 149.215H71.6818V148.633C71.6818 148.164 71.5598 147.788 71.3156 147.507C71.0778 147.225 70.6991 147.084 70.1796 147.084C69.7226 147.084 69.3627 147.194 69.0998 147.413C68.8432 147.632 68.7149 147.932 68.7149 148.314H66.0015C66.0015 147.726 66.183 147.181 66.546 146.68C66.9091 146.18 67.4223 145.788 68.0858 145.507C68.7493 145.219 69.4942 145.075 70.3204 145.075C71.5723 145.075 72.5644 145.391 73.2967 146.023C74.0353 146.649 74.4046 147.532 74.4046 148.671V153.074C74.4109 154.038 74.5455 154.767 74.8083 155.262V155.421H72.0668ZM69.8228 153.534C70.2234 153.534 70.5927 153.447 70.9307 153.271C71.2687 153.09 71.5191 152.849 71.6818 152.548V150.802H70.6678C69.3095 150.802 68.5866 151.272 68.4989 152.21L68.4895 152.37C68.4895 152.708 68.6085 152.987 68.8463 153.206C69.0842 153.425 69.4097 153.534 69.8228 153.534Z" fill="#FFC12C"/>
<path d="M80.3572 148.295L82.066 145.263H84.9672L82.0754 150.239L85.0893 155.421H82.1787L80.3666 152.229L78.5639 155.421H75.644L78.6578 150.239L75.7754 145.263H78.686L80.3572 148.295Z" fill="#FFC12C"/>
<path d="M89.136 155.421H86.4132V145.263H89.136V155.421ZM86.2535 142.634C86.2535 142.227 86.3881 141.892 86.6573 141.629C86.9327 141.366 87.3051 141.235 87.7746 141.235C88.2378 141.235 88.6071 141.366 88.8825 141.629C89.1579 141.892 89.2956 142.227 89.2956 142.634C89.2956 143.047 89.1547 143.385 88.8731 143.648C88.5977 143.911 88.2315 144.042 87.7746 144.042C87.3176 144.042 86.9483 143.911 86.6667 143.648C86.3912 143.385 86.2535 143.047 86.2535 142.634Z" fill="#FFC12C"/>
<path d="M96.0557 155.609C94.5659 155.609 93.3516 155.152 92.4127 154.238C91.4801 153.325 91.0138 152.107 91.0138 150.586V150.323C91.0138 149.303 91.2109 148.392 91.6053 147.591C91.9996 146.784 92.5567 146.164 93.2765 145.732C94.0026 145.294 94.8288 145.075 95.7552 145.075C97.1448 145.075 98.237 145.513 99.032 146.389C99.8332 147.266 100.234 148.508 100.234 150.117V151.225H93.7647C93.8524 151.888 94.1153 152.42 94.5534 152.821C94.9978 153.221 95.558 153.422 96.2341 153.422C97.2794 153.422 98.0962 153.043 98.6846 152.286L100.018 153.778C99.611 154.354 99.0601 154.805 98.3654 155.13C97.6706 155.45 96.9007 155.609 96.0557 155.609ZM95.7458 147.272C95.2075 147.272 94.7694 147.453 94.4314 147.816C94.0996 148.179 93.8868 148.699 93.7929 149.375H97.5673V149.159C97.5548 148.558 97.392 148.095 97.0791 147.769C96.7661 147.438 96.3217 147.272 95.7458 147.272Z" fill="#FFC12C"/>
<path d="M107.285 152.614C107.285 152.282 107.119 152.023 106.787 151.835C106.462 151.641 105.936 151.469 105.21 151.318C102.794 150.811 101.586 149.785 101.586 148.239C101.586 147.338 101.958 146.586 102.703 145.986C103.454 145.378 104.434 145.075 105.642 145.075C106.931 145.075 107.961 145.378 108.731 145.986C109.507 146.593 109.895 147.381 109.895 148.352H107.182C107.182 147.963 107.056 147.644 106.806 147.394C106.556 147.137 106.164 147.009 105.632 147.009C105.176 147.009 104.822 147.112 104.571 147.319C104.321 147.525 104.196 147.788 104.196 148.107C104.196 148.408 104.337 148.652 104.618 148.84C104.906 149.021 105.388 149.181 106.064 149.319C106.74 149.45 107.31 149.6 107.773 149.769C109.207 150.295 109.923 151.206 109.923 152.501C109.923 153.428 109.526 154.179 108.731 154.755C107.936 155.324 106.909 155.609 105.651 155.609C104.8 155.609 104.043 155.459 103.379 155.159C102.722 154.852 102.205 154.436 101.83 153.91C101.454 153.378 101.267 152.805 101.267 152.192H103.839C103.864 152.674 104.043 153.043 104.374 153.3C104.706 153.556 105.15 153.684 105.708 153.684C106.227 153.684 106.618 153.587 106.881 153.393C107.15 153.193 107.285 152.933 107.285 152.614Z" fill="#FFC12C"/>
<g filter="url(#filter0_d)">
<path d="M96.7 56.2547C96.7 78.2297 66.7844 116.3 56.8126 128.348C55.2329 130.275 52.0735 130.275 50.4938 128.348C40.6206 116.397 10.7051 78.2297 10.7051 56.2547C10.7051 29.9427 29.9577 8.54608 53.7519 8.54608C67.3768 8.54608 79.422 15.5819 87.3205 26.473C88.0116 27.4368 87.8142 28.6897 86.8269 29.3644L38.0536 67.9169C37.1651 68.6879 37.0663 69.9409 37.7574 70.8083C38.1524 71.2902 38.8435 71.483 39.4359 71.483C39.9295 71.483 40.4232 71.2902 40.8181 71.0011L88.2091 33.6052C89.3939 32.6414 91.3685 33.0269 91.9609 34.3762C92.3558 35.2437 92.1584 36.3039 91.2698 36.9785L43.9775 74.4708C43.0889 75.2418 42.9902 76.4948 43.6813 77.3622C44.0762 77.8441 44.7674 78.0369 45.3597 78.0369C45.8534 78.0369 46.3471 77.8441 46.742 77.555L91.171 42.3759C92.5533 41.3157 94.6266 41.9903 95.0216 43.6288C96.2063 47.6768 96.7 51.9176 96.7 56.2547Z" fill="url(#paint0_linear)"/>
<path d="M88.5395 25.5989L88.5348 25.5923C80.3936 14.3665 67.9208 7.04608 53.7519 7.04608C28.9867 7.04608 9.20508 29.2644 9.20508 56.2547C9.20508 62.0495 11.1665 68.7765 14.1565 75.7037C17.1572 82.6559 21.2487 89.9327 25.6291 96.8617C34.3897 110.719 44.3807 123.303 49.336 129.302C51.5158 131.958 55.7907 131.958 57.9704 129.301C62.9751 123.255 72.9902 110.672 81.7628 96.8269C86.1495 89.9038 90.2442 82.6359 93.2467 75.691C96.2384 68.7709 98.2 62.0497 98.2 56.2547C98.2 51.8162 97.6962 47.4402 96.4702 43.2385C95.7774 40.485 92.4168 39.5299 90.2581 41.1856L90.249 41.1927L90.2399 41.1999L45.8375 76.3579C45.654 76.487 45.4722 76.5369 45.3597 76.5369C45.2164 76.5369 45.0728 76.5122 44.9621 76.4717C44.8848 76.4434 44.8505 76.4178 44.8411 76.41C44.6742 76.1843 44.6791 75.8626 44.942 75.6203L92.1907 38.1626C93.6414 37.0515 93.9982 35.2419 93.3303 33.764C92.7977 32.5601 91.6932 31.8729 90.6041 31.653C89.5153 31.4331 88.2579 31.6372 87.2722 32.4337L39.9144 69.8034C39.7306 69.9329 39.5485 69.983 39.4359 69.983C39.2925 69.983 39.1489 69.9583 39.0383 69.9178C38.9609 69.8894 38.9266 69.8639 38.9172 69.8561C38.7505 69.6306 38.7552 69.3092 39.0175 69.067L87.7211 30.5696C89.3836 29.3964 89.6944 27.2094 88.5395 25.5989Z" stroke="black" stroke-width="3"/>
</g>
<g filter="url(#filter1_d)">
<path d="M96.7 56.2547C96.7 78.2297 66.7844 116.3 56.8126 128.348C55.2329 130.275 52.0735 130.275 50.4938 128.348C40.6206 116.397 10.7051 78.2297 10.7051 56.2547C10.7051 29.9427 29.9577 8.54608 53.7519 8.54608C67.3768 8.54608 79.422 15.5819 87.3205 26.473C88.0116 27.4368 87.8142 28.6897 86.8269 29.3644L38.0536 67.9169C37.1651 68.6879 37.0663 69.9409 37.7574 70.8083C38.1524 71.2902 38.8435 71.483 39.4359 71.483C39.9295 71.483 40.4232 71.2902 40.8181 71.0011L88.2091 33.6052C89.3939 32.6414 91.3685 33.0269 91.9609 34.3762C92.3558 35.2437 92.1584 36.3039 91.2698 36.9785L43.9775 74.4708C43.0889 75.2418 42.9902 76.4948 43.6813 77.3622C44.0762 77.8441 44.7674 78.0369 45.3597 78.0369C45.8534 78.0369 46.3471 77.8441 46.742 77.555L91.171 42.3759C92.5533 41.3157 94.6266 41.9903 95.0216 43.6288C96.2063 47.6768 96.7 51.9176 96.7 56.2547Z" fill="url(#paint1_linear)"/>
</g>
<path d="M48.2231 77.3457L54.2458 80.509C54.7394 80.8055 55.4305 80.7067 55.8255 80.3113L57.3064 79.0262L50.3952 75.3687L48.2231 77.3457Z" fill="#E38100"/>
<path d="M40.7196 68.5481L42.8917 66.6699L40.4234 59.2562L38.9424 60.5412C38.4488 60.9366 38.35 61.5297 38.5475 62.1228L40.7196 68.5481Z" fill="#E38100"/>
<path d="M33.5124 75.2699L34.3023 77.84C34.8946 79.7182 36.1782 81.2998 37.9553 82.1894L40.3249 83.3756C43.0893 84.7595 46.4462 84.1664 48.6183 81.9917L57.2079 73.3918L67.3772 66.0769C69.7468 64.3964 70.8328 61.332 70.1417 58.4654L70.043 57.9711C69.1544 54.4125 66.6861 51.5459 63.3292 50.0631L62.7369 49.7666C60.0711 48.5804 56.9117 49.1735 54.8384 51.3482L46.0513 60.2447L36.1782 67.3619C33.6111 69.1412 32.5251 72.3044 33.5124 75.2699Z" fill="#FFBC05"/>
<path d="M36.6716 66.9665C35.1907 73.5894 37.8564 80.3112 43.3854 84.1664C42.2993 84.1664 41.312 83.8698 40.4234 83.3756L38.0539 82.1894C36.2767 81.2997 34.9932 79.7181 34.4008 77.84L33.611 75.2699C32.7224 72.3044 33.8084 69.0423 36.2767 67.263L36.6716 66.9665Z" fill="#E38100"/>
<path d="M48.2231 77.0492L48.4206 77.1481C48.9142 77.2469 49.5066 77.1481 49.9015 76.7527L54.3444 72.2056L46.8409 63.4079L41.6081 67.0654C41.2132 67.3619 40.917 67.8562 41.0157 68.4493V68.647C41.4106 72.601 44.2738 75.9619 48.2231 77.0492Z" fill="#F2F2F2"/>
<path d="M48.1244 77.0492C44.2739 75.863 41.5094 72.6009 41.0157 68.5481V68.3504C40.917 67.8561 41.2132 67.263 41.6081 66.9665L45.6561 64.1987C44.57 68.6469 45.5574 73.2929 48.1244 77.0492Z" fill="#BDBDBD"/>
<path d="M61.9469 65.5826L54.4434 56.7849L56.6154 54.2148C57.0104 53.7206 57.7015 53.6217 58.1951 53.8194L59.6761 54.4125C62.4406 55.4999 64.5139 57.8723 65.1063 60.8378L65.4025 62.4194C65.5013 63.0125 65.2051 63.6056 64.7114 63.9021L61.9469 65.5826Z" fill="#F2F2F2"/>
<path d="M58.2938 53.8195L59.0836 54.116C58.9849 57.8723 59.8735 61.6286 61.5519 65.0884L54.542 56.8838L56.7141 54.3137C57.0103 53.7206 57.7014 53.5229 58.2938 53.8195Z" fill="#BDBDBD"/>
<path d="M46.4371 79.0195L41.2405 79.6335L41.414 81.106L46.6107 80.492L46.4371 79.0195Z" fill="#555160"/>
<path d="M38.8351 70.0542L37.4104 69.6494L35.9734 74.6871L37.3982 75.0919L38.8351 70.0542Z" fill="#555160"/>
<path d="M55.2333 72.2056L46.9399 62.4194L41.2135 66.3734C40.5224 66.8677 40.2262 67.6585 40.3249 68.4493V68.647C40.8186 72.9964 43.8792 76.555 48.1247 77.7412L48.3221 77.84C49.112 78.0377 49.9018 77.84 50.4942 77.2469L55.2333 72.2056ZM48.6183 76.4561L48.4209 76.3573C44.7678 75.3688 42.1021 72.2056 41.7071 68.4493V68.2516C41.7071 67.955 41.8059 67.7573 42.0033 67.5596L46.7424 64.2976L53.3574 72.1067L49.4082 76.2584C49.2107 76.4561 48.9145 76.555 48.6183 76.4561Z" fill="#333333"/>
<path d="M53.5544 56.7849L61.8479 66.571L65.3035 64.4952C66.0933 64.0009 66.4882 63.1113 66.2908 62.2216L65.9946 60.64C65.4022 57.4768 63.1314 54.8079 60.0707 53.7205L58.5897 53.1274C57.7012 52.8309 56.8126 53.0286 56.2202 53.7205L53.5544 56.7849ZM57.9974 54.5113L59.4783 55.1044C62.0453 56.0929 63.9212 58.2676 64.5136 61.0354L64.8098 62.617C64.9085 62.9136 64.7111 63.2101 64.5136 63.4078L62.1441 64.7917L55.4303 56.8837L57.2075 54.8079C57.405 54.4125 57.7012 54.3136 57.9974 54.5113Z" fill="#333333"/>
<path d="M38.8353 70.0554L37.4109 69.6494L35.9782 74.6883L37.4026 75.0943L38.8353 70.0554Z" fill="#333333"/>
<path d="M46.4401 79.0148L41.2434 79.6277L41.4167 81.1003L46.6133 80.4873L46.4401 79.0148Z" fill="#333333"/>
<path d="M57.9975 79.0262C57.9975 78.8285 57.8 78.5319 57.6026 78.4331L54.7394 76.9503L57.7013 73.9848L67.7719 66.7688C70.4376 64.8906 71.6224 61.5297 70.8326 58.4654L70.6351 57.8723C69.6478 54.116 67.0808 51.0516 63.5264 49.47L63.0328 49.1735C60.0709 47.8884 56.6153 48.5804 54.3444 50.8539L45.6561 59.6516L42.2992 62.1228L41.3119 59.0585C41.2132 58.6631 40.8183 58.4654 40.4233 58.5642C40.3246 58.5642 40.2259 58.6631 40.2259 58.6631L38.5474 59.9481C37.8563 60.5412 37.6589 61.4309 37.8563 62.3205L38.6462 64.5941L35.6842 66.6699C32.9198 68.6469 31.735 72.2055 32.7223 75.4676L33.5122 78.0377C34.2033 80.1135 35.5855 81.794 37.5601 82.7825L39.9297 83.9687C42.9903 85.4514 46.6434 84.8583 49.1117 82.4859L51.6787 79.9158L53.8508 81.102C54.6406 81.4974 55.6279 81.3986 56.2203 80.8055L57.7013 79.5204C57.9975 79.5204 58.0962 79.2239 57.9975 79.0262ZM39.8309 63.6056L39.2386 61.8263C39.1398 61.5297 39.2386 61.2332 39.436 61.0355L40.1271 60.4424L40.917 62.6171L39.8309 63.6056ZM40.7195 82.7825L38.35 81.5963C36.7703 80.8055 35.5855 79.4216 34.9931 77.7411L34.2033 75.171C33.4134 72.5021 34.302 69.6354 36.5728 67.955L46.4459 60.8378L55.233 51.9413C57.1089 50.0631 59.9721 49.47 62.3417 50.5574L62.9341 50.8539C66.0935 52.2378 68.3643 54.9068 69.2529 58.2677L69.4503 58.8608C70.1414 61.4309 69.1541 64.0998 66.982 65.6814L56.8127 72.9963L48.2231 81.5963C46.2485 83.5733 43.1878 84.0675 40.7195 82.7825ZM55.4305 79.7181C55.233 79.9158 54.8381 79.9158 54.6406 79.817L52.9622 78.9273L53.9495 78.0377L56.0229 79.125L55.4305 79.7181Z" fill="#333333"/>
<path d="M16.3135 32.849C20.5865 22.8742 29.3997 15.7287 37.4116 12.0179C37.4116 12.0179 36.5077 14.7874 41.7135 15.7287C46.9193 16.67 45.2552 18.4671 44.5724 19.494C43.8897 20.5209 41.5428 18.8522 40.0494 17.6969C38.5132 16.5845 33.2647 15.7715 30.2351 18.1248C27.2482 20.5209 24.6026 22.4036 25.456 23.3877C26.3094 24.3718 31.5152 20.1786 33.7341 19.5796C35.9957 18.9806 35.697 20.5637 34.1181 22.8742C32.5393 25.1848 32.966 27.2386 35.5689 27.7093C38.1719 28.2227 40.9454 27.4525 41.2868 26.5112C41.6708 25.5699 38.3425 21.3339 43.207 22.0613C48.0714 22.7887 51.9118 22.8742 49.4796 27.0674C47.0473 31.3034 44.2737 36.0528 44.7858 38.0639C45.2978 40.0749 47.1753 41.2302 46.4926 41.6152C45.8099 42.0003 44.8285 41.2729 44.1031 40.7595C43.3777 40.246 41.0308 40.7595 40.0494 41.5297C39.0679 42.3426 37.5318 44.696 39.2386 45.894C40.9454 47.0921 42.2682 45.8512 44.1457 46.0652C45.9806 46.2791 48.4128 48.5896 48.3274 49.317C48.2421 50.0444 46.6206 49.7021 44.7858 47.905C42.951 46.1079 41.3295 48.2473 39.7507 48.3329C38.1719 48.4613 36.9771 48.5896 34.6302 46.493C32.2833 44.3964 28.9977 44.696 27.2482 43.5835C22.2557 40.5028 21.445 37.1653 20.2075 35.9245C19.0981 34.7264 16.3135 32.849 16.3135 32.849Z" fill="white"/>
<path d="M52.9239 87.6922C52.9239 87.6922 57.1054 88.1063 59.2334 89.9508C61.3242 91.7952 61.6229 92.4728 64.8336 93.188C68.0444 93.9032 69.4631 95.71 67.3351 99.2483C65.2443 102.787 61.4735 108.433 59.6441 110.127C57.8147 111.821 55.5747 113.214 54.7533 116.037C53.9319 118.86 53.6333 120.554 55.4626 121.683C55.4626 121.683 54.492 124.092 52.2519 120.968C50.0118 117.881 51.8412 114.192 52.2519 112.084C52.6626 109.976 53.7826 103.615 53.0732 102.071C52.3639 100.528 49.1531 99.5495 48.3317 96.2746C47.473 93.0374 48.9291 86.7512 52.9239 87.6922Z" fill="white"/>
<path d="M63.0497 9.61432C68.9251 10.9496 74.2134 14.0175 78.8066 17.3592C78.8066 17.3592 72.9256 16.659 70.8275 18.5604C68.7294 20.4617 65.6106 25.0133 63.1156 18.5604C60.5638 12.1074 63.0497 9.61432 63.0497 9.61432Z" fill="white"/>
<path d="M93.4067 70.9629C96.1212 65.168 97.3837 58.7762 96.566 52.8647C96.566 52.8647 93.8094 54.5248 93.3952 56.2012C92.965 57.9118 94.7428 58.8692 94.013 59.8991C93.317 60.9448 92.6512 58.8456 89.6232 61.0851C86.5615 63.3088 85.4746 67.8293 87.6976 69.2447C89.8548 70.7124 93.4067 70.9629 93.4067 70.9629Z" fill="white"/>
<defs>
<filter id="filter0_d" x="3.70508" y="5.54608" width="99.9949" height="135.247" filterUnits="userSpaceOnUse" color-interpolation-filters="sRGB">
<feFlood flood-opacity="0" result="BackgroundImageFix"/>
<feColorMatrix in="SourceAlpha" type="matrix" values="0 0 0 0 0 0 0 0 0 0 0 0 0 0 0 0 0 0 127 0"/>
<feOffset dy="4"/>
<feGaussianBlur stdDeviation="2"/>
<feColorMatrix type="matrix" values="0 0 0 0 0 0 0 0 0 0 0 0 0 0 0 0 0 0 0.25 0"/>
<feBlend mode="normal" in2="BackgroundImageFix" result="effect1_dropShadow"/>
<feBlend mode="normal" in="SourceGraphic" in2="effect1_dropShadow" result="shape"/>
</filter>
<filter id="filter1_d" x="6.70508" y="8.54608" width="93.9949" height="129.247" filterUnits="userSpaceOnUse" color-interpolation-filters="sRGB">
<feFlood flood-opacity="0" result="BackgroundImageFix"/>
<feColorMatrix in="SourceAlpha" type="matrix" values="0 0 0 0 0 0 0 0 0 0 0 0 0 0 0 0 0 0 127 0"/>
<feOffset dy="4"/>
<feGaussianBlur stdDeviation="2"/>
<feColorMatrix type="matrix" values="0 0 0 0 0 0 0 0 0 0 0 0 0 0 0 0 0 0 0.25 0"/>
<feBlend mode="normal" in2="BackgroundImageFix" result="effect1_dropShadow"/>
<feBlend mode="normal" in="SourceGraphic" in2="effect1_dropShadow" result="shape"/>
</filter>
<linearGradient id="paint0_linear" x1="10.7051" y1="69.2035" x2="96.7465" y2="69.2035" gradientUnits="userSpaceOnUse">
<stop stop-color="#FFC326"/>
<stop offset="1" stop-color="#FFB446"/>
</linearGradient>
<linearGradient id="paint1_linear" x1="10.7051" y1="69.2035" x2="96.7465" y2="69.2035" gradientUnits="userSpaceOnUse">
<stop stop-color="#FFC326"/>
<stop offset="1" stop-color="#FFB446"/>
</linearGradient>
</defs>
</svg>
